<svg clip-rule="evenodd" fill-rule="evenodd" height="6.827in" image-rendering="optimizeQuality" shape-rendering="geometricPrecision" text-rendering="geometricPrecision" viewBox="0 0 6.82666 6.82666" width="6.827in" xmlns="http://www.w3.org/2000/svg"><g id="Layer_x0020_1"><path d="m4.90473 3.02232c-.0215984.0623937-.160551.466583-.23413.749268-.0250709.0963189-.0342913.16161-.0419961.216232-.0175591.124429-.0279331.197878-.175724.432539-.196094.31135.00447244 1.07997.00644488 1.08755l.00022047-.00005512c.00738976.0286299-.00983071.0578386-.0384646.0652323-.00657087.00169685-.0131732.00209055-.0195354.00135433-.0240315-.00067323-.134949-.00350394-.20237.00014173-.0599173.00323622-.11576.00337795-.154709-.114256-.0280591-.0847598-.0458543-.249606-.0458543-.572799 0-.193752-.0232992-.341965-.0552402-.45411-.0313386-.110008-.0704843-.184291-.103681-.232469-.0534803-.0776102-.147807-.0869961-.249661-.0971142-.0409567-.00407087-.0829764-.00825591-.124772-.0162559-.218854-.0419094-.442909-.0375236-.661-.033248-.160827.00315354-.318508.00622835-.470512-.00866929.0563228-.174421.0406575-.382374-.100209-.525303.119728.20898.0772953.395555-.0161339.556323-.00698031.00722835-.0141929.0144567-.0215512.0216142-.0346614.0337205-.0732323.0666378-.107717.0932087-.100315.0772756-.184661.0969173-.249874.112091-.0307244.00715354-.0560433.0130512-.0699055.022811-.0493583.0347441-.102634.139988-.112307.377476-.0074685.183469.013185.440228.0840827.794717l.00001181-.00000394c.00579921.0289961-.0130118.0572126-.0420039.0630118-.00435433.00087008-.00868504.00118898-.0129331.00099606l-.321894.0119764.00000787.00017323c-.0264134.00098032-.0490669-.0173386-.0543701-.0423425-.0172953-.0562677-.173244-.593528-.0095748-1.17837.106047-.378945.00790551-.612031-.0714606-.800535-.0446496-.106035-.0838898-.199252-.0847008-.299961-.0138583-.117047-.0139843-.246937.0168701-.367083.0260394-.101394.0740394-.195354.154043-.26874l-.00009449-.00010236.0000748-.00006693-.0000748-.00008268c.00088976-.00081496.00180315-.00159055.00272835-.00233465.054563-.0492677.120965-.0864528.197953-.111488.0765276-.0248937.163874-.037752.26078-.0385118.173055-.00148819.304913.0129764.414228.0347598.108756.0216772.195846.0508189.279059.0786732l.00005118-.00015748.00005118.00001575c.00071654.00023622.00141732.00048819.00211417.00075591l.00086614.00034252.001.00040945c.206185.069.391598.129728.810228.0646929.227303-.0355984.43752-.0723622.623437-.114343.183567-.0414488.342386-.0878189.468913-.142988.14089-.0614252.244299-.132618.301524-.217705.0540748-.0804094.0669803-.176413.0310079-.292398l-.00014567.00004331c-.00199606-.00643701-.0027126-.0129606-.00230709-.019311-.00084646-.0752598.0353465-.140555.102067-.191197.0613819-.0465866.149236-.0802559.25726-.0964843.0397126-.00596457.0804961-.00811417.126315-.00017323.045126.00782283.0939803.0253937.149657.0587717l-.0274016.045811.0275315-.0459291c.0028937.00173622.00556299.00370079.008.00585827.133602.10598.270713.278528.381953.45063.139512.215839.239496.435642.242386.526154.00166535.0519724-.050185.070689-.100122.0887165-.0175315.00632677-.0346063.0124961-.0366417.0142323-.00771654.00661811-.0165945.0115906-.0263386.0150591-.00775591.00275984-.0163071.00456693-.0253819.00549213-.0598465.00611811-.123701-.0269291-.167382-.0495236-.00329921-.00170866.00563386.0029252-.0102087-.00516142-.0378819-.0193268-.075878-.0387126-.113949-.0515669-.0370551-.0125079-.0769291-.0201457-.122311-.0179803-.0115354.00054331-.0256693.00159449-.0395787.00396063-.0110551.00187795-.021252.00442126-.0276535.00790945l.00009449.00016929c-.00182283.00099213-.00367717.00186614-.00555512.00262992-.0423543.020937-.100102.0692756-.164295.133453-.0736614.0736339-.154106.166843-.229236.263563z" fill-rule="nonzero"/><path d="m4.79105 5.10946-.00002-.00008.00004.00017.00002.00008z" fill-rule="nonzero"/><path d="m4.83833 1.76698c-.0953228-.327327-.385079-.319752-.421193-.452575-.0265039-.0974606.130508-.0631654.215559-.0229252.0822362.0389055.274862.128169.387177.311764.00580315.00949213-.185264.157264-.181543.163736z"/><path d="m5.64467 2.63323c.0058937.0647047.00662205.114374.00383071.15222-.00311417.0423031-.0108504.0726535-.0211654.0940433-.0129055.0267559-.0291417.0394685-.046122.0433268-.00690945.00157087-.0137126.00153937-.0202677.00033465-.108126-.0198898-.111488-.20713-.113803-.336512l-.00036221-.0190354.19789.065622z" fill-rule="nonzero"/><ellipse rx=".053" ry=".107" transform="matrix(.732 -.732 .732 .732 5.236 1.951)"/><path d="m1.20374 2.88414c-.0199409-.00409449-.0396299-.00679528-.0596142-.0095315-.067752-.00928346-.138323-.0189528-.188866-.0614921-.234803-.197638-.00505118-.566319.102988-.30648.00847638.0203858.0209882.0504724.109929.0829252.0252717.00922047.0679882.0134724.112571.014878.0734567.00231496.146732-.00305512.16435-.00709055.0875906.289799-.023815.0662598-.241358.286791z" fill-rule="nonzero"/></g><path d="m0 0h6.827v6.827h-6.827z" fill="none"/></svg>