<?xml version="1.0" encoding="iso-8859-1"?>
<!-- Generator: Adobe Illustrator 19.0.0, SVG Export Plug-In . SVG Version: 6.00 Build 0)  -->
<svg version="1.1" id="Capa_1" xmlns="http://www.w3.org/2000/svg" xmlns:xlink="http://www.w3.org/1999/xlink" x="0px" y="0px"
	 viewBox="0 0 512 512" style="enable-background:new 0 0 512 512;" xml:space="preserve">
<g>
	<g>
		<path d="M408.295,36.292h-304.59C46.522,36.292,0,82.813,0,139.997v284.652c0,28.154,22.909,51.059,51.07,51.059h409.861
			c28.16,0,51.069-22.906,51.069-51.059V139.997C512,82.813,465.478,36.292,408.295,36.292z M491.922,424.649
			c0,17.083-13.902,30.981-30.991,30.981H51.07c-17.089,0-30.991-13.898-30.991-30.981v-174.03h172.674v43.169
			c0,5.545,4.495,10.039,10.039,10.039h106.416c5.545,0,10.039-4.495,10.039-10.039v-43.169h172.674V424.649z M299.169,250.619
			v33.129h-86.337v-33.129H299.169z M212.831,230.541v-33.129h86.337v33.129H212.831z M491.922,230.541H319.247v-43.169
			c0-5.545-4.495-10.039-10.039-10.039H202.792c-5.545,0-10.039,4.495-10.039,10.039v43.169H20.078v-90.544
			c0-46.112,37.515-83.627,83.627-83.627h304.59c46.112,0,83.627,37.515,83.627,83.627V230.541z"/>
	</g>
</g>
<g>
	<g>
		<path d="M384.11,423.528h-67.373c-5.545,0-10.039,4.495-10.039,10.039s4.495,10.039,10.039,10.039h67.373
			c5.545,0,10.039-4.495,10.039-10.039S389.655,423.528,384.11,423.528z"/>
	</g>
</g>
<g>
	<g>
		<path d="M422.431,423.528c-12.919,0-12.941,20.078,0,20.078C435.351,443.607,435.372,423.528,422.431,423.528z"/>
	</g>
</g>
<g>
</g>
<g>
</g>
<g>
</g>
<g>
</g>
<g>
</g>
<g>
</g>
<g>
</g>
<g>
</g>
<g>
</g>
<g>
</g>
<g>
</g>
<g>
</g>
<g>
</g>
<g>
</g>
<g>
</g>
</svg>
