<svg id="Слой_1" enable-background="new 0 0 56 56" height="512" viewBox="0 0 56 56" width="512" xmlns="http://www.w3.org/2000/svg"><g id="XMLID_3555_"><path id="XMLID_13_" d="m12 52.456c-.552 0-1-.447-1-1v-5.261c0-2.369 1.524-4.422 3.792-5.108l7.619-2.474c.414-.134.691-.517.691-.951v-2.568c0-.553.448-1 1-1s1 .447 1 1v2.568c0 1.305-.833 2.451-2.074 2.854l-7.638 2.479c-1.437.436-2.39 1.719-2.39 3.2v5.261c0 .553-.448 1-1 1z"/><path id="XMLID_12_" d="m44 52.456c-.553 0-1-.447-1-1v-5.261c0-1.481-.953-2.765-2.372-3.194l-7.715-2.678c-1.206-.419-2.016-1.558-2.016-2.834v-2.396c0-.553.447-1 1-1s1 .447 1 1v2.396c0 .426.271.806.672.945l7.677 2.665c2.23.674 3.754 2.727 3.754 5.096v5.261c0 .553-.447 1-1 1z"/><path id="XMLID_11_" d="m18.316 52.482c-.552 0-1-.447-1-1v-2.842c0-.553.448-1 1-1s1 .447 1 1v2.842c0 .553-.448 1-1 1z"/><path id="XMLID_10_" d="m37.699 52.553c-.553 0-1-.447-1-1v-2.912c0-.553.447-1 1-1s1 .447 1 1v2.912c0 .552-.447 1-1 1z"/><path id="XMLID_9_" d="m19.061 30.056c-2.419-2.401-3.751-5.601-3.751-9.009 0-6.998 5.693-12.69 12.69-12.69s12.69 5.693 12.69 12.69c0 3.324-1.32 6.45-3.717 8.8l-1.4-1.428c2.01-1.971 3.117-4.589 3.117-7.372 0-5.895-4.796-10.69-10.69-10.69s-10.69 4.796-10.69 10.69c0 2.871 1.123 5.566 3.161 7.589z"/><path id="XMLID_6_" d="m27.995 36.485c-4.342 0-8.13-2.932-9.167-7.202-.177-.727-.266-1.478-.266-2.231v-4.121c0-.568.256-1.091.702-1.437.846-.653 2.163-1.976 3.094-3.554.229-.388.632-.628 1.078-.641.43-.014.839.198 1.081.561.028.043 2.854 4.146 11.548 3.397.349-.029.705.089.966.329.258.237.406.573.406.922v4.543c0 .755-.089 1.506-.266 2.232-1.036 4.269-4.823 7.199-9.164 7.201-.003.001-.007.001-.012.001zm-.585-2.023c.002.001.005.001.007.001.202.016.408.028.6.022.187-.001.375-.008.565-.022h.006c3.174-.247 5.871-2.48 6.64-5.651.139-.572.209-1.164.209-1.76v-3.745c-6.328.353-10.163-1.741-11.897-3.505-1.204 1.741-2.553 2.879-2.978 3.216v4.034c0 .595.07 1.187.209 1.76.77 3.169 3.466 5.403 6.639 5.65z"/><path id="XMLID_5_" d="m37.698 52.553c-.465 0-.882-.326-.979-.8-.369-1.804-1.976-3.112-3.82-3.112-1.275 0-2.473.626-3.202 1.675-.387.555-1.021.886-1.697.886s-1.311-.331-1.697-.886c-.73-1.049-1.927-1.675-3.203-1.675-1.816 0-3.418 1.285-3.808 3.057-.118.539-.655.877-1.191.762-.54-.119-.88-.652-.762-1.191.59-2.681 3.013-4.627 5.761-4.627 1.929 0 3.74.946 4.844 2.532l.056.067.055-.068c1.103-1.586 2.915-2.532 4.844-2.532 2.79 0 5.221 1.981 5.779 4.712.111.541-.238 1.069-.779 1.18-.067.013-.134.02-.201.02z"/><path id="XMLID_4_" d="m17.576 38.482c-.071 0-.144-.008-.216-.023-3.752-.828-5.231-2.294-5.388-2.459-.171-.18-.269-.417-.274-.666-.276-12.252 3.399-18.941 6.531-22.395.371-.408 1.003-.44 1.413-.069.409.371.44 1.003.069 1.413-2.85 3.143-6.187 9.251-6.022 20.557.509.375 1.779 1.153 4.102 1.666.54.119.88.652.761 1.192-.104.467-.517.784-.976.784z"/><path id="XMLID_3_" d="m38.425 38.482c-.459 0-.872-.317-.976-.784-.119-.54.222-1.073.761-1.192 2.317-.512 3.588-1.288 4.103-1.668.163-11.305-3.173-17.414-6.022-20.555-.37-.409-.34-1.042.069-1.413.408-.371 1.04-.341 1.413.069 3.131 3.453 6.806 10.142 6.531 22.395-.006.249-.104.486-.275.667-.156.164-1.635 1.63-5.387 2.458-.074.016-.146.023-.217.023z"/><path id="XMLID_2_" d="m34.376 10.171-1.971-.338.313-1.823c-1.219-.211-3.192-.749-4.718-2.111-1.526 1.361-3.499 1.9-4.718 2.111l.312 1.816-1.972.338-.489-2.851c-.048-.283.027-.574.208-.797s.449-.359.736-.371c.032-.001 3.457-.183 5.137-2.317.379-.481 1.192-.481 1.571 0 1.692 2.149 5.102 2.315 5.137 2.317.287.012.555.147.735.371.182.224.257.514.208.797z"/></g></svg>