<svg id="Capa_1" enable-background="new 0 0 510.021 510.021" height="512" viewBox="0 0 510.021 510.021" width="512" xmlns="http://www.w3.org/2000/svg"><g><path d="m205.01 120.006h100c7.419 0 12.268-7.824 8.944-14.472l-50-100c-3.677-7.353-14.207-7.363-17.889 0l-50 100c-3.317 6.635 1.512 14.472 8.945 14.472zm50-87.639 33.82 67.639h-67.64z"/><path d="m140.01 250.006h230c7.419 0 12.268-7.824 8.944-14.472l-45-90c-1.694-3.388-5.157-5.528-8.944-5.528h-140c-3.788 0-7.25 2.14-8.944 5.528l-45 90c-3.318 6.635 1.511 14.472 8.944 14.472zm51.18-90h127.64l35 70h-197.64z"/><path d="m75.01 380.006h360c7.419 0 12.268-7.824 8.944-14.472l-45-90c-1.694-3.388-5.157-5.528-8.944-5.528h-270c-3.788 0-7.25 2.14-8.944 5.528l-45 90c-3.318 6.635 1.511 14.472 8.944 14.472zm51.18-90h257.64l35 70h-327.64z"/><path d="m508.954 495.534-45-90c-1.694-3.388-5.157-5.528-8.944-5.528h-400c-3.788 0-7.25 2.14-8.944 5.528l-45 90c-3.317 6.636 1.512 14.472 8.944 14.472h490c7.418 0 12.268-7.824 8.944-14.472zm-482.764-5.528 35-70h387.64l35 70z"/></g></svg>