<svg id="Layer_1" enable-background="new 0 0 511.502 511.502" height="512" viewBox="0 0 511.502 511.502" width="512" xmlns="http://www.w3.org/2000/svg"><g><circle cx="85.832" cy="97.186" r="34.055"/><circle cx="424.994" cy="36.989" r="34.055"/><path d="m511.286 405.068c-1.316-7.267-8.277-12.09-15.539-10.776l-27.197 4.923c.083-.736.136-1.481.136-2.239 0-.151-.162-282.105-.162-282.213h.576c3.454 0 6.613 2.855 6.628 5.909v120.717c0 9.075 7.357 16.432 16.432 16.432s16.432-7.357 16.432-16.432v-120.799c-.107-21.334-17.823-38.69-39.491-38.69-8.82 0-78.397 0-88.214 0-21.704 0-39.448 17.356-39.556 38.773v120.717c0 9.075 7.357 16.432 16.432 16.432s16.432-7.357 16.432-16.432v-120.635c.016-3.136 3.205-5.991 6.692-5.991h.399l.015 282.213c0 6.864 3.511 12.902 8.831 16.434l-260.93 47.231c.2-1.128.323-2.283.323-3.468 0-.15-.163-282.105-.163-282.213h.577c3.453 0 6.613 2.856 6.628 5.909v120.717c0 9.075 7.357 16.432 16.432 16.432s16.432-7.357 16.432-16.432v-120.8c-.107-21.333-17.823-38.69-39.491-38.69-9.629 0-78.048 0-88.214 0-21.703 0-39.448 17.356-39.556 38.773v120.717c0 9.075 7.357 16.432 16.432 16.432s16.432-7.357 16.432-16.432v-120.634c.016-3.136 3.206-5.993 6.693-5.993h.399l.015 282.213c0 7.499 4.187 14.019 10.35 17.353l-41.497 7.511c-7.267 1.315-12.092 8.272-10.776 15.539 1.315 7.261 8.265 12.091 15.539 10.776l216.889-39.259-16.531 16.531c-8.467 8.467-2.47 22.944 9.504 22.944h87.015c11.974 0 17.971-14.477 9.504-22.944l-27.714-27.713 206.087-37.304c7.266-1.315 12.091-8.272 10.775-15.539zm-90.549-165.7h8.513v157.608c0 3.23.792 6.27 2.169 8.96l-14.464 2.618c2.368-3.254 3.782-7.246 3.782-11.579zm-339.162 60.197h8.513v157.608c0 3.674 1.023 7.101 2.773 10.045l-16.181 2.929c3.039-3.469 4.895-8 4.895-12.974z"/></g></svg>