<svg id="Capa_1" enable-background="new 0 0 512 512" height="512" viewBox="0 0 512 512" width="512" xmlns="http://www.w3.org/2000/svg"><g><path d="m512 324.891c0-19.531-15.89-35.422-35.422-35.422h-5.896c8.564-17.823 13.068-37.449 13.068-57.377 0-19.633-4.189-38.487-12.435-56.089l5.301-25.272c1.479-7.052-.277-14.305-4.819-19.897-4.542-5.594-11.279-8.802-18.484-8.802h-9.644c-7.206 0-13.943 3.208-18.485 8.802s-6.298 12.846-4.819 19.897l5.527 26.347c-1.095 6.111-2.532 12.116-4.3 17.995-.904-1.744-1.871-3.459-2.917-5.135-10.491-16.823-15.55-37.413-14.632-59.544.081-1.931.046-3.895-.103-5.836-1.57-20.571-16.253-37.704-35.597-43.021l1.437-18.425 19.244-1.812c4.124-.388 7.152-4.046 6.764-8.17-.388-4.123-4.044-7.146-8.17-6.764l-36.04 3.393c-4.124.388-7.152 4.046-6.764 8.17.366 3.885 3.633 6.798 7.458 6.798.235 0 .473-.012.712-.034l1.639-.154-1.195 15.33c-11.547.483-22.38 4.973-30.956 12.964-9.823 9.152-15.457 22.098-15.457 35.518 0 .674.014 1.344.041 2.014.333 8.152-.206 16.232-1.581 24.088-1.359-.089-2.721-.15-4.088-.15-6.38 0-12.616.954-18.662 2.806 1.883-10.336 5.125-17.983 9.46-22.218 2.963-2.894 3.02-7.643.125-10.605-2.895-2.964-7.644-3.021-10.606-.125-8.761 8.556-12.678 22.308-14.406 33.937-6.896-2.487-14.062-3.762-21.414-3.788-5.475-13.632-8.013-29.175-7.349-45.169.08-1.93.045-3.893-.103-5.835-1.035-13.561-7.774-25.626-17.784-33.801 1.357-.517 2.792-.98 4.311-1.382 4.005-1.058 6.394-5.162 5.336-9.166-1.058-4.005-5.159-6.396-9.167-5.336-6.483 1.712-11.883 4.243-16.383 7.229-3.573-1.144-7.317-1.888-11.183-2.162-13.63-.966-26.637 3.612-36.598 12.893-9.823 9.152-15.457 22.098-15.457 35.519 0 .676.014 1.349.042 2.013.89 21.745-4.327 42.602-15.087 60.315-5.645 9.293-9.18 19.818-10.331 30.64-.884.318-1.767.645-2.64 1.007-3.963 1.641-7.682 3.688-11.148 6.117-.061-3.94.224-8.276 1.093-12.956.756-4.073-1.933-7.987-6.005-8.743-4.07-.754-7.987 1.934-8.743 6.006-1.725 9.294-1.634 17.555-.772 24.416-7.211.181-14.21 1.639-20.881 4.404-25.871 10.715-40.944 38.396-38.534 69.835-16.23 3.227-28.501 17.574-28.501 34.737 0 17.302 12.473 31.738 28.898 34.81 9.729 29.835 33.405 56.784 66.788 75.964 33.674 19.347 76.054 30.001 119.333 30.001h81.96c33.529 0 66.514-6.319 95.388-18.273 3.827-1.585 5.645-5.972 4.061-9.799-1.585-3.827-5.972-5.647-9.799-4.061-27.071 11.208-58.072 17.133-89.65 17.133h-81.96c-40.698 0-80.425-9.946-111.861-28.008-28.131-16.162-48.529-38.121-58.102-62.345h421.889c-8.901 22.458-27.243 43.156-52.361 58.888-3.511 2.199-4.574 6.827-2.375 10.338 1.424 2.272 3.866 3.52 6.364 3.52 1.359 0 2.736-.37 3.974-1.145 30.494-19.099 51.384-44.032 60.557-72.213 16.423-3.073 28.896-17.508 28.896-34.81zm-139.327-35.422c6.809-5.078 13.265-10.636 19.294-16.664 24.391-24.392 40.824-54.822 47.776-88.336h18.949c6.67 14.994 10.059 30.99 10.059 47.623 0 20.135-5.176 39.917-14.962 57.377zm64.155-149.181c1.681-2.069 4.174-3.257 6.84-3.257h9.644c2.667 0 5.159 1.188 6.84 3.257s2.331 4.753 1.783 7.362l-4.577 21.818h-17.737l-4.577-21.818c-.546-2.609.103-5.291 1.784-7.362zm-170.826 37.955c-3.863-.588-6.091-1.527-6.348-1.64-3.738-1.709-8.163-.091-9.91 3.641-1.757 3.751-.14 8.216 3.611 9.973.437.205 7.589 3.463 19.245 3.463 5.699 0 12.477-.78 20.068-3.076 3.965-1.199 6.207-5.386 5.007-9.35-1.199-3.965-5.386-6.203-9.35-5.008-2.59.783-5.034 1.341-7.324 1.729-.013-.685-.024-2.172.033-4.211 6.501-2.947 13.325-4.46 20.351-4.46 26.961 0 50.812 22.985 56.71 54.653.672 3.608 3.823 6.128 7.365 6.128.456 0 .917-.041 1.382-.128 4.072-.759 6.758-4.675 6-8.746-3.445-18.498-12.28-35.354-24.876-47.46-8.134-7.819-17.628-13.446-27.741-16.576 1.577-8.955 2.196-18.154 1.817-27.42-.019-.466-.028-.933-.028-1.403 0-9.409 3.793-18.125 10.682-24.542 6.882-6.413 15.864-9.578 25.313-8.905 16.406 1.162 29.722 14.401 30.974 30.798.104 1.356.128 2.725.072 4.069-1.044 25.159 4.797 48.71 16.892 68.104 3.564 5.715 6.098 11.936 7.544 18.491-7.856 16.89-18.666 32.367-32.13 45.831-4.18 4.18-8.589 8.109-13.186 11.794 2.133-5.557 3.761-11.394 4.832-17.439.722-4.079-1.999-7.971-6.077-8.693-4.072-.725-7.97 1.998-8.693 6.076-2.401 13.559-8.059 25.815-16.37 35.533h-130.84c1.566-14.083-.573-28.621-6.282-42.403-3.846-9.284-9.105-17.673-15.467-24.848 6.433-30.763 29.896-52.915 56.37-52.915 7.027 0 13.851 1.513 20.353 4.46-.04 2.006-.021 3.538.001 4.48zm-126.721-1.028c12.299-20.247 18.266-44.009 17.254-68.72-.019-.463-.029-.929-.029-1.396 0-9.409 3.793-18.126 10.682-24.543 6.681-6.226 15.343-9.379 24.489-8.943-3.093 4.404-5.166 8.812-6.53 12.553-2.611-3.125-7.249-3.601-10.442-1.046-3.232 2.591-3.752 7.311-1.162 10.543.42.523 10.48 12.848 27.983 14.867.292.034.582.051.869.051 3.757 0 7-2.818 7.441-6.642.475-4.114-2.476-7.835-6.591-8.31-1.806-.208-3.484-.603-5.049-1.099 1.038-3.872 3.499-10.408 9.032-16.207 9.066 5.449 15.403 15.065 16.247 26.122.104 1.357.128 2.729.072 4.072-.692 16.669 1.724 32.975 6.998 47.629-11.507 2.821-22.349 8.823-31.48 17.593-10.184 9.781-17.906 22.664-22.315 37.008-3.315-2.448-6.796-4.641-10.442-6.517-11.245-5.79-23.065-8.281-34.529-7.46 1.324-6.898 3.855-13.551 7.502-19.555zm337.297 168.098h-441.156c-11.261 0-20.422-9.161-20.422-20.422s9.161-20.422 20.422-20.422h63.455c4.142 0 7.5-3.357 7.5-7.5s-3.358-7.5-7.5-7.5h-55.387c-2.081-25.114 9.393-47.055 29.284-55.294 6.915-2.865 14.329-3.872 22.037-2.99 2.566.3 5.113-.759 6.723-2.784 4.827-6.072 10.781-10.604 17.696-13.469 12.54-5.194 26.82-4.259 40.213 2.636 13.809 7.108 24.976 19.623 31.444 35.238 4.962 11.98 6.671 24.584 5.016 36.663h-64.366c-4.142 0-7.5 3.357-7.5 7.5s3.358 7.5 7.5 7.5h345.041c11.261 0 20.422 9.161 20.422 20.422s-9.161 20.422-20.422 20.422z"/><path d="m136.63 383.895c0-4.143-3.358-7.5-7.5-7.5h-20.118c-4.142 0-7.5 3.357-7.5 7.5s3.358 7.5 7.5 7.5h20.118c4.142 0 7.5-3.358 7.5-7.5z"/><path d="m126.206 418.141h20.118c4.142 0 7.5-3.357 7.5-7.5s-3.358-7.5-7.5-7.5h-20.118c-4.142 0-7.5 3.357-7.5 7.5s3.358 7.5 7.5 7.5z"/><path d="m331.863 383.895c0-4.143-3.358-7.5-7.5-7.5h-20.118c-4.142 0-7.5 3.357-7.5 7.5s3.358 7.5 7.5 7.5h20.118c4.142 0 7.5-3.358 7.5-7.5z"/><path d="m342.781 394.141c-4.142 0-7.5 3.357-7.5 7.5s3.358 7.5 7.5 7.5h20.118c4.142 0 7.5-3.357 7.5-7.5s-3.358-7.5-7.5-7.5z"/><path d="m294.067 407.539c-4.142 0-7.5 3.357-7.5 7.5s3.358 7.5 7.5 7.5h20.118c4.142 0 7.5-3.357 7.5-7.5s-3.358-7.5-7.5-7.5z"/></g></svg>