<svg id="Capa_1" enable-background="new 0 0 512.042 512.042" height="512" viewBox="0 0 512.042 512.042" width="512" xmlns="http://www.w3.org/2000/svg"><g><g id="Page-1_62_"><g id="_x30_63---Houses" transform="translate(-1)"><path id="Shape_150_" d="m2.598 204.313c3.059 7.976 10.7 13.256 19.243 13.295h4.779v110.933c0 14.138 11.462 25.6 25.6 25.6h93.867v68.267c0 14.138 11.462 25.6 25.6 25.6h170.667c14.138 0 25.6-11.462 25.6-25.6v-68.267h93.867c14.138 0 25.6-11.462 25.6-25.6v-110.933h4.779c8.536-.035 16.176-5.303 19.243-13.269 3.349-8.185 1.341-17.586-5.06-23.689l-18.961-18.185v-64.323c0-9.426-7.641-17.067-17.067-17.067h-25.6c-9.426 0-17.067 7.641-17.067 17.067v7.125l-37.001-35.473c-7.909-7.662-20.473-7.662-28.382 0l-94.933 90.957c-5.761-3.39-12.82-3.734-18.884-.922v-61.687c0-9.426-7.641-17.067-17.067-17.067h-25.6c-9.426 0-17.067 7.641-17.067 17.067v7.142l-37.001-35.49c-7.902-7.68-20.48-7.68-28.382 0l-115.678 110.797c-6.423 6.103-8.446 15.52-5.095 23.722zm49.622 132.762c-4.713 0-8.533-3.821-8.533-8.533v-110.934h142.805l-59.375 56.892c-6.395 6.143-8.388 15.569-5.026 23.774 3.033 7.976 10.693 13.236 19.226 13.201h4.77v25.6zm179.2 93.867v-51.2c0-14.138 11.462-25.6 25.6-25.6s25.6 11.462 25.6 25.6v51.2zm119.466-8.534c0 4.713-3.82 8.533-8.533 8.533h-42.667v-51.2c0-23.564-19.103-42.667-42.667-42.667s-42.667 19.103-42.667 42.667v51.2h-42.667c-4.713 0-8.533-3.821-8.533-8.533v-110.933h187.733v110.933zm119.467-93.866c0 4.713-3.82 8.533-8.533 8.533h-93.867v-25.6h4.77c8.533.034 16.193-5.225 19.226-13.201 3.362-8.205 1.369-17.631-5.026-23.774l-18.97-18.202v-38.69h102.4zm-145.067-113.127v-23.407h25.6v47.957zm119.467-117.273h25.6v48l-25.6-24.525zm-70.622-16.043c.619-.641 1.472-1.004 2.364-1.004.891 0 1.745.362 2.364 1.004l51.268 49.109.171.171 42.496 40.713.171.162 21.641 20.727c1.337 1.306 1.731 3.301.99 5.018-.465 1.502-1.842 2.534-3.413 2.56h-124.23v-8.55c0-9.426-7.641-17.067-17.067-17.067h-25.6c-9.426 0-17.067 7.641-17.067 17.067v7.074l-28.075-26.906zm-114.722 93.867 2.074 1.997c.06.051.068.128.128.188s.196.111.282.196l38.221 36.634.307.29 10.163 9.737c.128.137.256.247.393.375l42.291 40.525c.107.115.221.223.341.324l21.504 20.608c1.36 1.335 1.76 3.369 1.007 5.12-.491 1.473-1.861 2.473-3.413 2.492h-231.39c-1.552-.019-2.923-1.019-3.413-2.492-.754-1.751-.354-3.785 1.007-5.12l74.701-71.578.29-.273 38.246-36.693c.085-.077.188-.102.265-.188.077-.085.068-.128.119-.179l2.082-1.997c.633-.636 1.492-.993 2.389-.993s1.757.357 2.389.993zm-53.589-77.824h25.6v48.034l-25.6-24.567zm-186.351 94.796 115.729-110.865c.619-.641 1.472-1.004 2.364-1.004s1.745.362 2.364 1.004l51.311 49.178.051.051 42.615 40.832-29.602 28.407h-182.46c-1.572-.026-2.949-1.058-3.413-2.56-.735-1.734-.321-3.741 1.041-5.043z"/></g></g></g></svg>