<svg id="Layer_1" enable-background="new 0 0 64 64" height="512" viewBox="0 0 64 64" width="512" xmlns="http://www.w3.org/2000/svg"><g><ellipse cx="24.99" cy="14.74" rx="14.49" ry="14.49" transform="matrix(.998 -.066 .066 .998 -.921 1.688)"/><path d="m30.09 44.42c0-5.01 2.06-9.53 5.38-12.79-1.03-.5-2.1-.92-3.21-1.27-2.21 1.04-4.67 1.63-7.27 1.63-2.61 0-5.07-.6-7.29-1.64-9.81 3.1-16.92 12.27-16.92 23.11v10.29h48.47v-1.44c-.4.03-.8.06-1.2.06-9.91 0-17.96-8.05-17.96-17.95z"/><path d="m48.04 29.24c-8.39 0-15.18 6.8-15.18 15.18 0 8.39 6.8 15.18 15.18 15.18 8.39 0 15.18-6.8 15.18-15.18s-6.8-15.18-15.18-15.18zm8.84 13.95-4.09 2.97 1.56 4.8c.43 1.34-1.1 2.45-2.23 1.62l-4.09-2.97-4.09 2.97c-1.14.83-2.67-.29-2.23-1.62l1.56-4.8-4.09-2.97c-1.14-.83-.55-2.63.85-2.63h5.05l1.56-4.8c.43-1.34 2.33-1.34 2.76 0l1.56 4.8h5.05c1.43.01 2.01 1.81.87 2.63z"/></g></svg>