<svg id="Layer_1" height="512" viewBox="0 0 64 64" width="512" xmlns="http://www.w3.org/2000/svg" data-name="Layer 1"><path d="m34 23h-4a6 6 0 0 0 -6 6v9a3 3 0 0 0 3 3h1v14h8v-14h1a3 3 0 0 0 3-3v-9a6 6 0 0 0 -6-6z"/><circle cx="32" cy="17" r="5"/><path d="m51 28v9a3 3 0 0 1 -3 3h-1v14h-8v-11.42a5.014 5.014 0 0 0 3-4.58v-9a7.979 7.979 0 0 0 -3.37-6.51 5.879 5.879 0 0 1 2.37-.49h4a6 6 0 0 1 6 6z"/><circle cx="43" cy="16" r="5"/><path d="m62 26v9a3 3 0 0 1 -3 3h-1v14h-8v-10.42a5.014 5.014 0 0 0 3-4.58v-9a7.99 7.99 0 0 0 -4.23-7.05 5.859 5.859 0 0 1 3.23-.95h4a6 6 0 0 1 6 6z"/><circle cx="54" cy="14" r="5"/><path d="m25 42.58v11.42h-8v-14h-1a3 3 0 0 1 -3-3v-9a6 6 0 0 1 6-6h4a5.879 5.879 0 0 1 2.37.49 7.979 7.979 0 0 0 -3.37 6.51v9a5.014 5.014 0 0 0 3 4.58z"/><circle cx="21" cy="16" r="5"/><path d="m14 41.58v10.42h-8v-14h-1a3 3 0 0 1 -3-3v-9a6 6 0 0 1 6-6h4a5.859 5.859 0 0 1 3.23.95 7.99 7.99 0 0 0 -4.23 7.05v9a5.014 5.014 0 0 0 3 4.58z"/><circle cx="10" cy="14" r="5"/></svg>