<svg id="line" height="512" viewBox="0 0 64 64" width="512" xmlns="http://www.w3.org/2000/svg"><path d="m59.55957 29.61035a4.7017 4.7017 0 0 0 -5.89648-2.40088l-8.97028 3.38465a4.20824 4.20824 0 0 0 -4.19134-4.65466h-6.06788c-1.98526.15845-5.50211-2.006-7.28127-2.73922a8.6137 8.6137 0 0 0 -3.65183-.81791h-8.51758a3.023 3.023 0 0 0 -3-3.23387h-6.98291a1 1 0 0 0 -1 1v21.63133a1.00005 1.00005 0 0 0 1 1h6.98291a3.00225 3.00225 0 0 0 2.99823-2.98243h2.035a4.62964 4.62964 0 0 1 2.14795.53077l5.30811 2.79492a14.99869 14.99869 0 0 0 12.47217.69336l20.30563-7.96094a4.70472 4.70472 0 0 0 2.30957-6.24512zm-46.57666 10.16944a1.00131 1.00131 0 0 1 -1 1h-5.98291v-19.63135h5.98291a1.0013 1.0013 0 0 1 1 1zm44.84961-7.25879a2.64231 2.64231 0 0 1 -1.36035 1.49267l-20.25781 7.94043a13.00043 13.00043 0 0 1 -10.81055-.60058l-5.30811-2.79493a6.63488 6.63488 0 0 0 -3.07959-.76123h-2.0332v-13.415h8.51758a6.612 6.612 0 0 1 2.79931.62647l4.48194 2.11279c2.23059 1.27053 7.24485.70347 9.71974.81792a2.234 2.234 0 0 1 -.00008 4.46773h-10.6723a1.00019 1.00019 0 0 0 .00007 2h10.67229a4.21541 4.21541 0 0 0 2.95148-1.20777l10.9162-4.11889a2.70126 2.70126 0 0 1 3.46338 3.44039z"/></svg>