<svg id="Layer_1" height="512" viewBox="0 0 652.6238 234.2459" width="512" xmlns="http://www.w3.org/2000/svg"><g><path d="m301.6843 183.426c.2939.3018.6846.4536 1.0752.4536.377 0 .7549-.1411 1.0459-.4253.5938-.5776.6064-1.5273.0293-2.1211-4.4584-4.5806-7.561-9.3657-9.7126-14.0262-.9677.2818-1.9354.5636-2.9092.8445 2.2845 5.0726 5.6199 10.2898 10.4714 15.2745z"/><path d="m291.9099 181.7126c.2559.543.7949.8608 1.3584.8608.2139 0 .4307-.0459.6377-.1431.749-.3525 1.0713-1.2461.7188-1.9956-.0535-.1138-2.2855-4.9476-4.3007-12.0253-.9763.2808-1.9544.561-2.9369.8408 2.035 7.0981 4.2994 11.9882 4.5227 12.4624z"/><path d="m283.7351 177.9753c.2031.6382.793 1.0464 1.4287 1.0464.1504 0 .3037-.0229.4541-.0708.79-.2505 1.2266-1.0938.9766-1.8833-.0284-.0895-.8955-2.8835-1.7798-7.0926-.9731.2747-1.9434.5497-2.9225.8232.8735 4.0657 1.7275 6.8136 1.8429 7.1771z"/><path d="m327.8953 156.9005c.1207.3232.2562.6398.4091.9486l-11.4697 10.3107c-2.0215 1.8174-2.9824 4.5376-2.5498 7.2217l6.2607 38.8579c.625 3.877 3.9717 6.7275 7.8984 6.7275h7.292c4.418 0 8-3.5815 8-8s-3.582-8-8-8h-.4775l-4.4834-27.8242 16.79-15.0938c.4248-.3662.8076-.7744 1.1436-1.2163l11.7508-15.1024c-10.3504 3.7398-21.2118 7.4749-32.5642 11.1703z"/><ellipse cx="118.222" cy="22.504" rx="22.5" ry="22.5" transform="matrix(.916 -.402 .402 .916 .92 49.397)"/><path d="m83.4203 98.7732-3.0303-37.9219c-.4521-5.6621 3.7861-10.6367 9.4473-11.0889.2793-.0234.5654-.0352.8496-.0352 5.3154 0 9.8125 4.165 10.2383 9.4814l.6837 8.5574c.2216-.5245.447-1.0558.6594-1.5642 4.8108-9.1703 3.5281-21.5939-4.4048-25.3951-7.9352-3.7997-20.9893-1.7473-28.8652 11.5842-10.721 18.3931-14.7941 30.9637-16.7266 53.245-.0004.0358.0013.0691.001.1047-.0605-.0328-.1041-.0568-.1104-.0604-.6816-.3936-1.5537-.1924-1.9937.4614-.5601.832-13.5127 20.8628 3.9844 63.6084.1855.4531.5806.7871 1.0581.895.1094.0244.2202.0366.3301.0366.3696 0 .731-.1367 1.0098-.3906 1.5022-1.3677 2.9147-2.726 4.2859-4.079l.3118 3.3295c.0527.563.4175 1.0483.9434 1.2559.1782.0703.3647.1045.5503.1045.0822 0 .16-.0305.2409-.0438l-28.6667 29.3295c-4.8252 4.937-4.7349 12.8511.2021 17.6768 2.4316 2.3765 5.585 3.5605 8.7363 3.5605 3.2466 0 6.4917-1.2573 8.9404-3.7627l38.0918-38.9727c2.6646-2.7261 3.9394-6.519 3.4624-10.3013l-2.2576-17.9033 13.3875 11.6084 11.6313 50.0986c1.3408 5.7739 6.4814 9.6763 12.1655 9.6758.9355 0 1.8872-.106 2.8379-.3267 6.7246-1.5615 10.9102-8.2788 9.3491-15.0034l-12.5503-54.0547c-.5972-2.5713-1.9927-4.8877-3.9873-6.6167l-16.6075-14.4006 1.2676-1.1258c.334-.2969.5186-.7271.5029-1.1738s-.2295-.8633-.584-1.1362l-18.6921-14.3954c.11-1.1575.1213-1.8677.1213-2.0309 0-.4419-.1948-.8608-.5322-1.146-.3379-.2852-.7808-.4058-1.2192-.333-.383.0651-.7582.1182-1.1366.1761.1837-1.2531.3964-2.5085.6431-3.7664l-.1616-.1118c-2.5526-1.7664-4.1591-4.5545-4.4071-7.6492zm3.683 14.6049c-.6846 6.3408-4.918 28.7686-30.981 53.2241-13.4385-34.2002-6.3975-52.9473-4.0986-57.6201 3.6887 1.7704 14.5721 6.1041 30.2352 4.9117-1.3414 4.6497-7.6776 24.4697-21.1658 36.1743l.7861.9062c14.1771-12.302 20.5775-33.3326 21.6545-37.1755 1.1661-.1098 2.3536-.2458 3.5696-.4207zm-23.2437 52.9365-.2709-2.8931c19.1334-19.9697 24.539-37.751 26.053-46.3634l15.8965 12.2423z"/><path d="m118.3525 127.5416-3.1589 3.7296 7.6309 6.4629 3.8347-4.5275c-.3275-.1778-.6497-.3674-.9595-.5818z"/><path d="m136.1117 117.5749-34.752-24.043-2.7275-34.1396c-.3525-4.4043-4.2119-7.7031-8.6123-7.3369-4.4033.3516-7.6885 4.208-7.3369 8.6123l3.0303 37.9219c.1914 2.3936 1.4482 4.5752 3.4229 5.9414l37.8721 26.2022c1.3887.9609 2.9746 1.4219 4.5449 1.4219 2.5371 0 5.0332-1.2051 6.5859-3.4492 2.5136-3.6339 1.6064-8.6173-2.0274-11.131z"/><path d="m648.6605 223.6771-13.211-3.9633-79.7064 5.0642-94.6789-1.5413-157.211 1.3211-23.7798-4.844-14.5321-5.2844-17.1315 3.0233-37.1284-19.0472 2.3942-2.6602c3.5957-3.9956 7.8936-7.1562 12.7725-9.395 2.8818-1.3213 6.4082-2.9302 10.4443-4.7529l-1.339-2.9647c1.1691-.278 2.3392-.5556 3.5012-.8354 104.2249-25.1019 179.7697-57.8082 225.14-81.0839 35.8474-18.3901 58.9506-33.9135 69.4172-41.4349.5873 1.2205 1.4203 2.2998 2.4442 3.1655-10.5793 7.6069-33.9195 23.3004-70.0352 41.8284-24.3126 12.4727-57.2583 27.6423-98.5806 42.9071-1.0558 2.3109-2.2131 4.562-3.4661 6.7491l4.7064 11.0629-5.2568 14.1851c-.668 1.8018-.665 3.7832.0078 5.5825l13.0928 35.0103c1.1689 3.126 4.1553 5.1978 7.4932 5.1978h8.3467c4.418 0 8-3.5815 8-8s-3.582-8-8-8h-2.7969l-10.1064-27.0229 7.1582-19.3149c.0537-.145.1035-.2915.1484-.4395l4.1199-13.4633c1.1746.3503 2.1219.6218 2.7639.7964 26.4412 7.1918 85.197 17.6616 113.245 17.4371l10.0633 25.6252c-2.0599.7769-3.7986 2.3757-4.652 4.5919-1.5869 4.1235.4688 8.7529 4.5918 10.3398l4.626 1.7808c.7863.3027 1.5927.4659 2.3948.514.0007.0012.0016.0022.0023.0034.0574.0882.1006.1847.1615.2707l8.8877 12.5308c1.5 2.1147 3.9326 3.3716 6.5254 3.3716h6.0879c4.418 0 8-3.5815 8-8s-3.582-8-8-8h-1.9541l-5.7598-8.1206-1.7238-5.5459.8196-1.622-27.3898-67.856 4.6367-1.8711 25.7505 63.7949 4.2387-8.3887c1.4551-2.8804 1.0371-6.3535-1.0596-8.8066l-13.9289-16.2917c6.1571-8.2452 8.4395-14.6046 10.4025-20.2376.5909-.2113 1.1615-.52 1.6843-.945l5.8364-4.7449c.7475-.6077 1.6371-1.0157 2.5853-1.1858l21.0833-3.7811c1.5261-.2737 3.0978.0872 4.3518.999l25.7418 24.7042c1.3646.9924 2.2184 2.5391 2.3311 4.2227.1227 1.8338 1.1234 3.4955 2.687 4.4615l8.0543 4.9764c1.9797 1.2231 4.5046 1.1179 6.3755-.2659l5.3627-3.9665c1.7164-1.2695 2.5779-3.3929 2.2313-5.4995l-5.5577-29.4932c-.0895-.5436-.0995-1.0973-.0298-1.6438l2.5505-20.0027c3.3727-2.2251 10.0051-7.4702 14.6813-16.7562 5.833-11.5825 9.5049-31.8696-6.127-62.7427-.3643-.7207-1.2324-1.0225-1.9678-.6831-.7334.3394-1.0654 1.1987-.752 1.9434.0459.1108 4.6611 11.2329 4.8369 25.0635.1838 14.4534-4.322 26.3238-13.3774 35.4427l-2.1959-4.0369c-.6337-1.165-1.65-2.056-2.8571-2.547l-.9598-9.1427c-.2328-2.2176-2.1453-3.1894-3.9284-1.9962l-2.9631 1.983c-.6341.4243-1.1722 1.0793-1.5256 1.8568l-.8646 1.9025-3.1495-5.1465c-1.0137-1.6564-3.0777-1.8008-4.2397-.2966l-1.1291 1.4615c-2.4718-6.1512-3.6868-13.0298-3.5901-20.6311.1768-13.8306 4.792-24.9526 4.8379-25.0635.3135-.7446-.0186-1.604-.752-1.9434-.7344-.3384-1.6035-.0366-1.9678.6831-11.1245 21.9709-12.4688 38.5757-10.2194 50.5022l-14.9254-2.7981c-.6542-.1226-1.2817-.3591-1.8542-.6985l-18.668-11.0708c.3143-.9448.491-1.9516.491-3.0005 0-5.2583-4.2783-9.5366-9.5361-9.5366-3.5679 0-6.68 1.9725-8.3152 4.8812-18.9652-8.0906-51.5439-18.2986-78.0935-7.7408-35.8938 14.2737-73.2076 7.0146-88.368 10.0513-7.6478 1.5319-15.8403-.4133-24.1453-.4658-10.2977-1.193-19.4646.6345-27.3934 5.4831-18.139 11.0936-29.175 37.6459-32.8257 78.9184-7.6846 8.2744-8.0044 21.1548-7.2336 29.3496-13.6835 3.7789-27.9481 7.4478-42.7886 10.9609l-1.0856-2.4037c-4.0596 1.8335-7.6074 3.4521-10.5078 4.7822-6.376 2.9253-11.9912 7.0547-16.6895 12.2744l-2.3063 2.5626-10.8367-14.5439-14.7957-63.2338 13.6661-1.8908-1.3701-9.9053-14.5839 2.0178-1.1273-4.8176-11.6844 2.7339.874 3.7353-17.4198 2.4102c-4.7241.6537-9.148 2.5085-12.8891 5.343l5.1378 3.5545c1.2002.8303 2.183 1.8869 2.9222 3.0956 1.9022-1.0662 3.9989-1.7831 6.1997-2.0878l18.3372-2.5371 15.3334 65.5322.2846 1.2164.7464 1.0017 13.0187 17.4725-7.4464 8.2739 8.9199 8.0273 7.532-8.3689 28.9535 10.3665-12.4785-.8241-21.0889 5.8204-25.59 2.3264-18.1652-5.1743-25.5413 5.9449-26.312-2.0917-27.7431-10.5688-26.0915 11.6695-30.7156 1.5413-18.4954 7.9266h652.6238zm-56.2906-186.611c-1.7803 15.562.5 37.4199 22.0068 51.9189.1084.603.1465 2.1782-1.4512 4.748-1.7725 2.8521-3.6162 2.6479-4.0771 2.541-1.1074-.604-9.9072-5.6694-15.458-16.8027-5.8213-11.6757-6.1299-26.1176-1.0205-42.4052zm45.6318 1.1484c5.1094 16.2881 4.8018 30.7314-1.0195 42.4067-3.4734 6.9666-8.2189 11.5567-11.556 14.165l.5635-4.4197c.1512-1.1859-.0748-2.3891-.6461-3.4392l-1.6555-3.0435c14.3467-14.0444 15.853-32.2096 14.3136-45.6693zm-20.2344 72.5136c-1.0377 1.6796-3.2406 2.1999-4.9202 1.1622-1.6796-1.0378-2.1999-3.2406-1.1622-4.9202 1.0378-1.6796 3.2406-2.1999 4.9202-1.1621 1.6797 1.0376 2.2 3.2405 1.1622 4.9201zm-333.3383 30.8717c-.6905 6.1116-.2363 12.2776.721 17.8881-.6244.1781-1.2552.355-1.8821.5326-.5872-6.0115-.5502-12.6904 1.1611-18.4207zm86.0229-39.9917 4.9961-.1865c.379 10.1562-.8326 20.0801-3.4771 29.3845-1.9514.7396-3.9213 1.4795-5.9128 2.2201 3.2705-9.8119 4.8022-20.4673 4.3938-31.4181zm171.75-56.9815c3.6045 0 6.5361 2.9321 6.5361 6.5366s-2.9316 6.5366-6.5361 6.5366-6.5371-2.9321-6.5371-6.5366 2.9326-6.5366 6.5371-6.5366zm-225.862 18.7039c-4.1343 8.6048-10.8541 28.93-.4527 56.7383 3.6423 9.7376 7.0493 14.4655 10.2778 16.2687-.0219 1.0126.0603 2.0416.2869 3.0748.4852 2.2113 1.5112 4.1619 2.902 5.7545l-.2559.8209c-12.142 4.008-24.8864 7.9714-38.2094 11.8458-2.6408-11.5102-.3511-20.4822-.3117-20.6283.0389-.1447.048-.2891.0439-.4316.0989-.2985.1759-.6073.2021-.9346 2.9106-36.2606 11.7028-61.1514 25.517-72.5085zm-34.5081 76.5355c-2.1878 6.5778-2.2332 14.2532-1.5334 20.9946-.5001.1403-.9904.2822-1.4921.4221-.4972-6.0574-.339-14.5495 3.0255-21.4167zm-82.3456 59.1505c0-1.7025 1.3801-3.0826 3.0826-3.0826s3.0826 1.3801 3.0826 3.0826-1.3801 3.0826-3.0826 3.0826-3.0826-1.3801-3.0826-3.0826z"/></g></svg>